<mxfile host="app.diagrams.net" modified="2023-07-21T12:51:32.579Z" agent="Mozilla/5.0 (Windows NT 10.0; Win64; x64) AppleWebKit/537.36 (KHTML, like Gecko) Chrome/114.0.0.0 Safari/537.36 Edg/114.0.1823.82" etag="9KB0J-B5Q9u1f1-FoZhl" version="21.6.5" type="github" pages="3">
  <diagram name="Page-1" id="90a13364-a465-7bf4-72fc-28e22215d7a0">
    <mxGraphModel dx="1901" dy="1080" grid="1" gridSize="10" guides="1" tooltips="1" connect="1" arrows="1" fold="1" page="1" pageScale="1.5" pageWidth="1169" pageHeight="826" background="none" math="0" shadow="0">
      <root>
        <mxCell id="0" style=";html=1;" />
        <mxCell id="1" style=";html=1;" parent="0" />
        <mxCell id="IBjGQl41Eb35qvI7iTFf-52" value="" style="group" vertex="1" connectable="0" parent="1">
          <mxGeometry x="30" y="320" width="900" height="260" as="geometry" />
        </mxCell>
        <mxCell id="IBjGQl41Eb35qvI7iTFf-2" value="pc fetch" style="rounded=0;whiteSpace=wrap;html=1;" vertex="1" parent="IBjGQl41Eb35qvI7iTFf-52">
          <mxGeometry x="90" y="70" width="120" height="60" as="geometry" />
        </mxCell>
        <mxCell id="IBjGQl41Eb35qvI7iTFf-3" value="inst split" style="rounded=0;whiteSpace=wrap;html=1;" vertex="1" parent="IBjGQl41Eb35qvI7iTFf-52">
          <mxGeometry x="250" y="70" width="120" height="60" as="geometry" />
        </mxCell>
        <mxCell id="IBjGQl41Eb35qvI7iTFf-5" style="edgeStyle=orthogonalEdgeStyle;rounded=0;orthogonalLoop=1;jettySize=auto;html=1;exitX=1;exitY=0.5;exitDx=0;exitDy=0;entryX=0;entryY=0.5;entryDx=0;entryDy=0;" edge="1" parent="IBjGQl41Eb35qvI7iTFf-52" source="IBjGQl41Eb35qvI7iTFf-2" target="IBjGQl41Eb35qvI7iTFf-3">
          <mxGeometry relative="1" as="geometry" />
        </mxCell>
        <mxCell id="IBjGQl41Eb35qvI7iTFf-4" value="inst control" style="rounded=0;whiteSpace=wrap;html=1;" vertex="1" parent="IBjGQl41Eb35qvI7iTFf-52">
          <mxGeometry x="410" y="70" width="120" height="60" as="geometry" />
        </mxCell>
        <mxCell id="IBjGQl41Eb35qvI7iTFf-6" style="edgeStyle=orthogonalEdgeStyle;rounded=0;orthogonalLoop=1;jettySize=auto;html=1;exitX=1;exitY=0.5;exitDx=0;exitDy=0;entryX=0;entryY=0.5;entryDx=0;entryDy=0;" edge="1" parent="IBjGQl41Eb35qvI7iTFf-52" source="IBjGQl41Eb35qvI7iTFf-3" target="IBjGQl41Eb35qvI7iTFf-4">
          <mxGeometry relative="1" as="geometry" />
        </mxCell>
        <mxCell id="IBjGQl41Eb35qvI7iTFf-8" value="inst control" style="swimlane;whiteSpace=wrap;html=1;" vertex="1" parent="IBjGQl41Eb35qvI7iTFf-52">
          <mxGeometry x="570" width="200" height="200" as="geometry" />
        </mxCell>
        <mxCell id="IBjGQl41Eb35qvI7iTFf-18" style="edgeStyle=orthogonalEdgeStyle;rounded=0;orthogonalLoop=1;jettySize=auto;html=1;exitX=0.5;exitY=1;exitDx=0;exitDy=0;" edge="1" parent="IBjGQl41Eb35qvI7iTFf-8" source="IBjGQl41Eb35qvI7iTFf-10" target="IBjGQl41Eb35qvI7iTFf-11">
          <mxGeometry relative="1" as="geometry" />
        </mxCell>
        <mxCell id="IBjGQl41Eb35qvI7iTFf-10" value="sign ctrl" style="rounded=0;whiteSpace=wrap;html=1;" vertex="1" parent="IBjGQl41Eb35qvI7iTFf-8">
          <mxGeometry x="80" y="40" width="80" height="60" as="geometry" />
        </mxCell>
        <mxCell id="IBjGQl41Eb35qvI7iTFf-11" value="imm selete" style="rounded=0;whiteSpace=wrap;html=1;" vertex="1" parent="IBjGQl41Eb35qvI7iTFf-8">
          <mxGeometry x="80" y="120" width="80" height="60" as="geometry" />
        </mxCell>
        <mxCell id="IBjGQl41Eb35qvI7iTFf-16" value="&lt;ul&gt;&lt;li&gt;opcode&lt;/li&gt;&lt;/ul&gt;" style="text;strokeColor=none;fillColor=none;html=1;whiteSpace=wrap;verticalAlign=middle;overflow=hidden;" vertex="1" parent="IBjGQl41Eb35qvI7iTFf-8">
          <mxGeometry x="-10" y="30" width="100" height="80" as="geometry" />
        </mxCell>
        <mxCell id="IBjGQl41Eb35qvI7iTFf-17" value="&lt;ul&gt;&lt;li&gt;Iimm&lt;/li&gt;&lt;li&gt;Simm&lt;/li&gt;&lt;li&gt;Bimm&lt;/li&gt;&lt;li&gt;Uimm&lt;/li&gt;&lt;li&gt;Jimm&lt;/li&gt;&lt;/ul&gt;" style="text;strokeColor=none;fillColor=none;html=1;whiteSpace=wrap;verticalAlign=middle;overflow=hidden;" vertex="1" parent="IBjGQl41Eb35qvI7iTFf-8">
          <mxGeometry x="-10" y="100" width="100" height="90" as="geometry" />
        </mxCell>
        <mxCell id="IBjGQl41Eb35qvI7iTFf-9" value="" style="shape=curlyBracket;whiteSpace=wrap;html=1;rounded=1;labelPosition=left;verticalLabelPosition=middle;align=right;verticalAlign=middle;" vertex="1" parent="IBjGQl41Eb35qvI7iTFf-52">
          <mxGeometry x="530" width="40" height="200" as="geometry" />
        </mxCell>
        <mxCell id="IBjGQl41Eb35qvI7iTFf-12" value="&lt;ul&gt;&lt;li&gt;R_alu64&lt;/li&gt;&lt;li&gt;R_alu32&lt;/li&gt;&lt;li&gt;...&lt;/li&gt;&lt;/ul&gt;" style="text;strokeColor=none;fillColor=none;html=1;whiteSpace=wrap;verticalAlign=middle;overflow=hidden;" vertex="1" parent="IBjGQl41Eb35qvI7iTFf-52">
          <mxGeometry x="800" y="30" width="100" height="80" as="geometry" />
        </mxCell>
        <mxCell id="IBjGQl41Eb35qvI7iTFf-13" style="edgeStyle=orthogonalEdgeStyle;rounded=0;orthogonalLoop=1;jettySize=auto;html=1;exitX=1;exitY=0.5;exitDx=0;exitDy=0;entryX=0;entryY=0.5;entryDx=0;entryDy=0;" edge="1" parent="IBjGQl41Eb35qvI7iTFf-52" source="IBjGQl41Eb35qvI7iTFf-10" target="IBjGQl41Eb35qvI7iTFf-12">
          <mxGeometry relative="1" as="geometry" />
        </mxCell>
        <mxCell id="IBjGQl41Eb35qvI7iTFf-14" value="&lt;ul&gt;&lt;li&gt;imm&lt;/li&gt;&lt;/ul&gt;" style="text;strokeColor=none;fillColor=none;html=1;whiteSpace=wrap;verticalAlign=middle;overflow=hidden;" vertex="1" parent="IBjGQl41Eb35qvI7iTFf-52">
          <mxGeometry x="800" y="110" width="100" height="80" as="geometry" />
        </mxCell>
        <mxCell id="IBjGQl41Eb35qvI7iTFf-15" style="edgeStyle=orthogonalEdgeStyle;rounded=0;orthogonalLoop=1;jettySize=auto;html=1;exitX=1;exitY=0.5;exitDx=0;exitDy=0;" edge="1" parent="IBjGQl41Eb35qvI7iTFf-52" source="IBjGQl41Eb35qvI7iTFf-11" target="IBjGQl41Eb35qvI7iTFf-14">
          <mxGeometry relative="1" as="geometry" />
        </mxCell>
        <mxCell id="IBjGQl41Eb35qvI7iTFf-19" value="" style="endArrow=classic;html=1;rounded=0;entryX=0;entryY=0.5;entryDx=0;entryDy=0;" edge="1" parent="IBjGQl41Eb35qvI7iTFf-52" target="IBjGQl41Eb35qvI7iTFf-2">
          <mxGeometry relative="1" as="geometry">
            <mxPoint y="80" as="sourcePoint" />
            <mxPoint x="110" y="20" as="targetPoint" />
            <Array as="points">
              <mxPoint y="100" />
            </Array>
          </mxGeometry>
        </mxCell>
        <mxCell id="IBjGQl41Eb35qvI7iTFf-20" value="inst_addr" style="edgeLabel;resizable=0;html=1;align=center;verticalAlign=middle;" connectable="0" vertex="1" parent="IBjGQl41Eb35qvI7iTFf-19">
          <mxGeometry relative="1" as="geometry" />
        </mxCell>
        <mxCell id="IBjGQl41Eb35qvI7iTFf-21" value="JUMP module" style="edgeLabel;resizable=0;html=1;align=left;verticalAlign=bottom;" connectable="0" vertex="1" parent="IBjGQl41Eb35qvI7iTFf-19">
          <mxGeometry x="-1" relative="1" as="geometry" />
        </mxCell>
        <mxCell id="IBjGQl41Eb35qvI7iTFf-23" value="" style="endArrow=classic;html=1;rounded=0;entryX=0.5;entryY=1;entryDx=0;entryDy=0;" edge="1" parent="IBjGQl41Eb35qvI7iTFf-52" target="IBjGQl41Eb35qvI7iTFf-2">
          <mxGeometry relative="1" as="geometry">
            <mxPoint y="160" as="sourcePoint" />
            <mxPoint x="40" y="129" as="targetPoint" />
            <Array as="points">
              <mxPoint x="150" y="160" />
            </Array>
          </mxGeometry>
        </mxCell>
        <mxCell id="IBjGQl41Eb35qvI7iTFf-24" value="jump_en" style="edgeLabel;resizable=0;html=1;align=center;verticalAlign=middle;" connectable="0" vertex="1" parent="IBjGQl41Eb35qvI7iTFf-23">
          <mxGeometry relative="1" as="geometry" />
        </mxCell>
        <mxCell id="IBjGQl41Eb35qvI7iTFf-26" value="&lt;ul&gt;&lt;li&gt;opcode&lt;/li&gt;&lt;li&gt;funct7&lt;/li&gt;&lt;li&gt;funct3&lt;/li&gt;&lt;li&gt;rs1addr&lt;/li&gt;&lt;li&gt;rs2addr&lt;/li&gt;&lt;li&gt;...&lt;/li&gt;&lt;/ul&gt;" style="text;strokeColor=none;fillColor=none;html=1;whiteSpace=wrap;verticalAlign=middle;overflow=hidden;" vertex="1" parent="IBjGQl41Eb35qvI7iTFf-52">
          <mxGeometry x="420" y="140" width="100" height="120" as="geometry" />
        </mxCell>
        <mxCell id="IBjGQl41Eb35qvI7iTFf-28" style="edgeStyle=orthogonalEdgeStyle;rounded=0;orthogonalLoop=1;jettySize=auto;html=1;exitX=0.5;exitY=1;exitDx=0;exitDy=0;entryX=0;entryY=0.5;entryDx=0;entryDy=0;" edge="1" parent="IBjGQl41Eb35qvI7iTFf-52" source="IBjGQl41Eb35qvI7iTFf-3" target="IBjGQl41Eb35qvI7iTFf-26">
          <mxGeometry relative="1" as="geometry" />
        </mxCell>
        <mxCell id="IBjGQl41Eb35qvI7iTFf-81" value="" style="group" vertex="1" connectable="0" parent="1">
          <mxGeometry x="20" y="20" width="450" height="280" as="geometry" />
        </mxCell>
        <mxCell id="IBjGQl41Eb35qvI7iTFf-57" value="" style="edgeStyle=entityRelationEdgeStyle;fontSize=12;html=1;endArrow=openThin;endFill=0;rounded=0;" edge="1" parent="IBjGQl41Eb35qvI7iTFf-81">
          <mxGeometry width="100" height="100" relative="1" as="geometry">
            <mxPoint x="160" y="140" as="sourcePoint" />
            <mxPoint x="280" y="40" as="targetPoint" />
          </mxGeometry>
        </mxCell>
        <mxCell id="IBjGQl41Eb35qvI7iTFf-58" value="" style="endArrow=none;html=1;rounded=0;" edge="1" parent="IBjGQl41Eb35qvI7iTFf-81">
          <mxGeometry width="50" height="50" relative="1" as="geometry">
            <mxPoint x="280" y="40" as="sourcePoint" />
            <mxPoint x="320" y="40" as="targetPoint" />
          </mxGeometry>
        </mxCell>
        <mxCell id="IBjGQl41Eb35qvI7iTFf-59" value="" style="edgeStyle=entityRelationEdgeStyle;fontSize=12;html=1;endArrow=openThin;endFill=0;rounded=0;" edge="1" parent="IBjGQl41Eb35qvI7iTFf-81">
          <mxGeometry width="100" height="100" relative="1" as="geometry">
            <mxPoint x="320" y="40" as="sourcePoint" />
            <mxPoint x="440" y="140" as="targetPoint" />
            <Array as="points">
              <mxPoint x="380" y="80" />
            </Array>
          </mxGeometry>
        </mxCell>
        <mxCell id="IBjGQl41Eb35qvI7iTFf-64" value="" style="edgeStyle=entityRelationEdgeStyle;fontSize=12;html=1;endArrow=openThin;endFill=0;rounded=0;" edge="1" parent="IBjGQl41Eb35qvI7iTFf-81">
          <mxGeometry width="100" height="100" relative="1" as="geometry">
            <mxPoint y="40" as="sourcePoint" />
            <mxPoint x="120" y="140" as="targetPoint" />
            <Array as="points">
              <mxPoint x="100" y="80" />
            </Array>
          </mxGeometry>
        </mxCell>
        <mxCell id="IBjGQl41Eb35qvI7iTFf-65" value="" style="endArrow=none;html=1;rounded=0;" edge="1" parent="IBjGQl41Eb35qvI7iTFf-81">
          <mxGeometry width="50" height="50" relative="1" as="geometry">
            <mxPoint x="120" y="140" as="sourcePoint" />
            <mxPoint x="160" y="140" as="targetPoint" />
          </mxGeometry>
        </mxCell>
        <mxCell id="IBjGQl41Eb35qvI7iTFf-66" value="" style="endArrow=none;dashed=1;html=1;dashPattern=1 3;strokeWidth=2;rounded=0;" edge="1" parent="IBjGQl41Eb35qvI7iTFf-81">
          <mxGeometry width="50" height="50" relative="1" as="geometry">
            <mxPoint x="100" y="230" as="sourcePoint" />
            <mxPoint x="100" as="targetPoint" />
          </mxGeometry>
        </mxCell>
        <mxCell id="IBjGQl41Eb35qvI7iTFf-67" value="" style="endArrow=none;dashed=1;html=1;dashPattern=1 3;strokeWidth=2;rounded=0;" edge="1" parent="IBjGQl41Eb35qvI7iTFf-81">
          <mxGeometry width="50" height="50" relative="1" as="geometry">
            <mxPoint x="180" y="230" as="sourcePoint" />
            <mxPoint x="180" as="targetPoint" />
          </mxGeometry>
        </mxCell>
        <mxCell id="IBjGQl41Eb35qvI7iTFf-68" value="" style="endArrow=none;dashed=1;html=1;dashPattern=1 3;strokeWidth=2;rounded=0;" edge="1" parent="IBjGQl41Eb35qvI7iTFf-81">
          <mxGeometry width="50" height="50" relative="1" as="geometry">
            <mxPoint x="260" y="230" as="sourcePoint" />
            <mxPoint x="260" as="targetPoint" />
          </mxGeometry>
        </mxCell>
        <mxCell id="IBjGQl41Eb35qvI7iTFf-69" value="" style="endArrow=none;dashed=1;html=1;dashPattern=1 3;strokeWidth=2;rounded=0;" edge="1" parent="IBjGQl41Eb35qvI7iTFf-81">
          <mxGeometry width="50" height="50" relative="1" as="geometry">
            <mxPoint x="340" y="230" as="sourcePoint" />
            <mxPoint x="340" as="targetPoint" />
          </mxGeometry>
        </mxCell>
        <mxCell id="IBjGQl41Eb35qvI7iTFf-70" value="" style="endArrow=none;dashed=1;html=1;dashPattern=1 3;strokeWidth=2;rounded=0;" edge="1" parent="IBjGQl41Eb35qvI7iTFf-81">
          <mxGeometry width="50" height="50" relative="1" as="geometry">
            <mxPoint x="20" y="230" as="sourcePoint" />
            <mxPoint x="20" as="targetPoint" />
          </mxGeometry>
        </mxCell>
        <mxCell id="IBjGQl41Eb35qvI7iTFf-71" value="" style="endArrow=none;dashed=1;html=1;dashPattern=1 3;strokeWidth=2;rounded=0;" edge="1" parent="IBjGQl41Eb35qvI7iTFf-81">
          <mxGeometry width="50" height="50" relative="1" as="geometry">
            <mxPoint x="420" y="230" as="sourcePoint" />
            <mxPoint x="420" as="targetPoint" />
          </mxGeometry>
        </mxCell>
        <mxCell id="IBjGQl41Eb35qvI7iTFf-72" value="" style="shape=curlyBracket;whiteSpace=wrap;html=1;rounded=1;labelPosition=left;verticalLabelPosition=middle;align=right;verticalAlign=middle;rotation=-90;" vertex="1" parent="IBjGQl41Eb35qvI7iTFf-81">
          <mxGeometry x="250" y="80" width="20" height="320" as="geometry" />
        </mxCell>
        <mxCell id="IBjGQl41Eb35qvI7iTFf-73" value="Nth cycle" style="text;html=1;align=center;verticalAlign=middle;resizable=0;points=[];autosize=1;strokeColor=none;fillColor=none;" vertex="1" parent="IBjGQl41Eb35qvI7iTFf-81">
          <mxGeometry x="225" y="250" width="70" height="30" as="geometry" />
        </mxCell>
        <mxCell id="IBjGQl41Eb35qvI7iTFf-74" value="N-1th cycle" style="text;html=1;align=center;verticalAlign=middle;resizable=0;points=[];autosize=1;strokeColor=none;fillColor=none;" vertex="1" parent="IBjGQl41Eb35qvI7iTFf-81">
          <mxGeometry y="250" width="80" height="30" as="geometry" />
        </mxCell>
        <mxCell id="IBjGQl41Eb35qvI7iTFf-75" value="&lt;ul&gt;&lt;li&gt;pc update&lt;/li&gt;&lt;li&gt;...&lt;/li&gt;&lt;/ul&gt;" style="text;strokeColor=none;fillColor=none;html=1;whiteSpace=wrap;verticalAlign=middle;overflow=hidden;" vertex="1" parent="IBjGQl41Eb35qvI7iTFf-81">
          <mxGeometry y="140" width="90" height="110" as="geometry" />
        </mxCell>
        <mxCell id="IBjGQl41Eb35qvI7iTFf-77" value="&lt;ul&gt;&lt;li&gt;decode&lt;/li&gt;&lt;li&gt;sign ctrl&lt;/li&gt;&lt;li&gt;rs1/2 to bus1/2&lt;/li&gt;&lt;li&gt;imm sel&lt;/li&gt;&lt;/ul&gt;" style="text;strokeColor=none;fillColor=none;html=1;whiteSpace=wrap;verticalAlign=middle;overflow=hidden;" vertex="1" parent="IBjGQl41Eb35qvI7iTFf-81">
          <mxGeometry x="80" width="130" height="130" as="geometry" />
        </mxCell>
        <mxCell id="IBjGQl41Eb35qvI7iTFf-78" value="&lt;ul&gt;&lt;li&gt;mem load&lt;/li&gt;&lt;/ul&gt;" style="text;strokeColor=none;fillColor=none;html=1;whiteSpace=wrap;verticalAlign=middle;overflow=hidden;" vertex="1" parent="IBjGQl41Eb35qvI7iTFf-81">
          <mxGeometry x="160" y="140" width="90" height="110" as="geometry" />
        </mxCell>
        <mxCell id="IBjGQl41Eb35qvI7iTFf-79" value="&lt;ul&gt;&lt;li&gt;alu&lt;/li&gt;&lt;li&gt;jump ctrl&lt;/li&gt;&lt;li&gt;auipc&lt;/li&gt;&lt;li&gt;lui&lt;/li&gt;&lt;li&gt;bus3 sel&lt;/li&gt;&lt;/ul&gt;" style="text;strokeColor=none;fillColor=none;html=1;whiteSpace=wrap;verticalAlign=middle;overflow=hidden;" vertex="1" parent="IBjGQl41Eb35qvI7iTFf-81">
          <mxGeometry x="240" y="140" width="90" height="110" as="geometry" />
        </mxCell>
        <mxCell id="IBjGQl41Eb35qvI7iTFf-80" value="&lt;ul&gt;&lt;li&gt;bus3 to rd&lt;/li&gt;&lt;li&gt;bus3 to mem&lt;/li&gt;&lt;li&gt;pc update&lt;/li&gt;&lt;/ul&gt;" style="text;strokeColor=none;fillColor=none;html=1;whiteSpace=wrap;verticalAlign=middle;overflow=hidden;" vertex="1" parent="IBjGQl41Eb35qvI7iTFf-81">
          <mxGeometry x="320" y="140" width="130" height="110" as="geometry" />
        </mxCell>
      </root>
    </mxGraphModel>
  </diagram>
  <diagram id="xsDZxIZqjy4o5GkEVKXY" name="第 2 页">
    <mxGraphModel dx="1331" dy="756" grid="1" gridSize="10" guides="1" tooltips="1" connect="1" arrows="1" fold="1" page="1" pageScale="1" pageWidth="827" pageHeight="1169" math="0" shadow="0">
      <root>
        <mxCell id="0" />
        <mxCell id="1" parent="0" />
        <mxCell id="kqz_AR--rFRj53nuLRnA-1" value="" style="group" vertex="1" connectable="0" parent="1">
          <mxGeometry x="20" y="20" width="450" height="280" as="geometry" />
        </mxCell>
        <mxCell id="kqz_AR--rFRj53nuLRnA-2" value="" style="edgeStyle=entityRelationEdgeStyle;fontSize=12;html=1;endArrow=openThin;endFill=0;rounded=0;" edge="1" parent="kqz_AR--rFRj53nuLRnA-1">
          <mxGeometry width="100" height="100" relative="1" as="geometry">
            <mxPoint x="160" y="140" as="sourcePoint" />
            <mxPoint x="280" y="40" as="targetPoint" />
          </mxGeometry>
        </mxCell>
        <mxCell id="kqz_AR--rFRj53nuLRnA-3" value="" style="endArrow=none;html=1;rounded=0;" edge="1" parent="kqz_AR--rFRj53nuLRnA-1">
          <mxGeometry width="50" height="50" relative="1" as="geometry">
            <mxPoint x="280" y="40" as="sourcePoint" />
            <mxPoint x="320" y="40" as="targetPoint" />
          </mxGeometry>
        </mxCell>
        <mxCell id="kqz_AR--rFRj53nuLRnA-4" value="" style="edgeStyle=entityRelationEdgeStyle;fontSize=12;html=1;endArrow=openThin;endFill=0;rounded=0;" edge="1" parent="kqz_AR--rFRj53nuLRnA-1">
          <mxGeometry width="100" height="100" relative="1" as="geometry">
            <mxPoint x="320" y="40" as="sourcePoint" />
            <mxPoint x="440" y="140" as="targetPoint" />
            <Array as="points">
              <mxPoint x="380" y="80" />
            </Array>
          </mxGeometry>
        </mxCell>
        <mxCell id="kqz_AR--rFRj53nuLRnA-5" value="" style="edgeStyle=entityRelationEdgeStyle;fontSize=12;html=1;endArrow=openThin;endFill=0;rounded=0;" edge="1" parent="kqz_AR--rFRj53nuLRnA-1">
          <mxGeometry width="100" height="100" relative="1" as="geometry">
            <mxPoint y="40" as="sourcePoint" />
            <mxPoint x="120" y="140" as="targetPoint" />
            <Array as="points">
              <mxPoint x="100" y="80" />
            </Array>
          </mxGeometry>
        </mxCell>
        <mxCell id="kqz_AR--rFRj53nuLRnA-6" value="" style="endArrow=none;html=1;rounded=0;" edge="1" parent="kqz_AR--rFRj53nuLRnA-1">
          <mxGeometry width="50" height="50" relative="1" as="geometry">
            <mxPoint x="120" y="140" as="sourcePoint" />
            <mxPoint x="160" y="140" as="targetPoint" />
          </mxGeometry>
        </mxCell>
        <mxCell id="kqz_AR--rFRj53nuLRnA-7" value="" style="endArrow=none;dashed=1;html=1;dashPattern=1 3;strokeWidth=2;rounded=0;" edge="1" parent="kqz_AR--rFRj53nuLRnA-1">
          <mxGeometry width="50" height="50" relative="1" as="geometry">
            <mxPoint x="100" y="230" as="sourcePoint" />
            <mxPoint x="100" as="targetPoint" />
          </mxGeometry>
        </mxCell>
        <mxCell id="kqz_AR--rFRj53nuLRnA-8" value="" style="endArrow=none;dashed=1;html=1;dashPattern=1 3;strokeWidth=2;rounded=0;" edge="1" parent="kqz_AR--rFRj53nuLRnA-1">
          <mxGeometry width="50" height="50" relative="1" as="geometry">
            <mxPoint x="180" y="230" as="sourcePoint" />
            <mxPoint x="180" as="targetPoint" />
          </mxGeometry>
        </mxCell>
        <mxCell id="kqz_AR--rFRj53nuLRnA-9" value="" style="endArrow=none;dashed=1;html=1;dashPattern=1 3;strokeWidth=2;rounded=0;" edge="1" parent="kqz_AR--rFRj53nuLRnA-1">
          <mxGeometry width="50" height="50" relative="1" as="geometry">
            <mxPoint x="260" y="230" as="sourcePoint" />
            <mxPoint x="260" as="targetPoint" />
          </mxGeometry>
        </mxCell>
        <mxCell id="kqz_AR--rFRj53nuLRnA-10" value="" style="endArrow=none;dashed=1;html=1;dashPattern=1 3;strokeWidth=2;rounded=0;" edge="1" parent="kqz_AR--rFRj53nuLRnA-1">
          <mxGeometry width="50" height="50" relative="1" as="geometry">
            <mxPoint x="340" y="230" as="sourcePoint" />
            <mxPoint x="340" as="targetPoint" />
          </mxGeometry>
        </mxCell>
        <mxCell id="kqz_AR--rFRj53nuLRnA-11" value="" style="endArrow=none;dashed=1;html=1;dashPattern=1 3;strokeWidth=2;rounded=0;" edge="1" parent="kqz_AR--rFRj53nuLRnA-1">
          <mxGeometry width="50" height="50" relative="1" as="geometry">
            <mxPoint x="20" y="230" as="sourcePoint" />
            <mxPoint x="20" as="targetPoint" />
          </mxGeometry>
        </mxCell>
        <mxCell id="kqz_AR--rFRj53nuLRnA-12" value="" style="endArrow=none;dashed=1;html=1;dashPattern=1 3;strokeWidth=2;rounded=0;" edge="1" parent="kqz_AR--rFRj53nuLRnA-1">
          <mxGeometry width="50" height="50" relative="1" as="geometry">
            <mxPoint x="420" y="230" as="sourcePoint" />
            <mxPoint x="420" as="targetPoint" />
          </mxGeometry>
        </mxCell>
        <mxCell id="kqz_AR--rFRj53nuLRnA-13" value="" style="shape=curlyBracket;whiteSpace=wrap;html=1;rounded=1;labelPosition=left;verticalLabelPosition=middle;align=right;verticalAlign=middle;rotation=-90;" vertex="1" parent="kqz_AR--rFRj53nuLRnA-1">
          <mxGeometry x="250" y="80" width="20" height="320" as="geometry" />
        </mxCell>
        <mxCell id="kqz_AR--rFRj53nuLRnA-14" value="Nth cycle" style="text;html=1;align=center;verticalAlign=middle;resizable=0;points=[];autosize=1;strokeColor=none;fillColor=none;" vertex="1" parent="kqz_AR--rFRj53nuLRnA-1">
          <mxGeometry x="225" y="250" width="70" height="30" as="geometry" />
        </mxCell>
        <mxCell id="kqz_AR--rFRj53nuLRnA-15" value="N-1th cycle" style="text;html=1;align=center;verticalAlign=middle;resizable=0;points=[];autosize=1;strokeColor=none;fillColor=none;" vertex="1" parent="kqz_AR--rFRj53nuLRnA-1">
          <mxGeometry y="250" width="80" height="30" as="geometry" />
        </mxCell>
        <mxCell id="kqz_AR--rFRj53nuLRnA-16" value="&lt;ul&gt;&lt;li&gt;pc update&lt;/li&gt;&lt;li&gt;...&lt;/li&gt;&lt;/ul&gt;" style="text;strokeColor=none;fillColor=none;html=1;whiteSpace=wrap;verticalAlign=middle;overflow=hidden;" vertex="1" parent="kqz_AR--rFRj53nuLRnA-1">
          <mxGeometry y="140" width="90" height="110" as="geometry" />
        </mxCell>
        <mxCell id="kqz_AR--rFRj53nuLRnA-17" value="&lt;ul&gt;&lt;li&gt;decode&lt;/li&gt;&lt;li&gt;sign ctrl&lt;/li&gt;&lt;li&gt;rs1/2 to bus1/2&lt;/li&gt;&lt;li&gt;imm sel&lt;/li&gt;&lt;/ul&gt;" style="text;strokeColor=none;fillColor=none;html=1;whiteSpace=wrap;verticalAlign=middle;overflow=hidden;" vertex="1" parent="kqz_AR--rFRj53nuLRnA-1">
          <mxGeometry x="80" width="130" height="130" as="geometry" />
        </mxCell>
        <mxCell id="kqz_AR--rFRj53nuLRnA-18" value="&lt;ul&gt;&lt;li&gt;mem load&lt;/li&gt;&lt;/ul&gt;" style="text;strokeColor=none;fillColor=none;html=1;whiteSpace=wrap;verticalAlign=middle;overflow=hidden;" vertex="1" parent="kqz_AR--rFRj53nuLRnA-1">
          <mxGeometry x="160" y="140" width="90" height="110" as="geometry" />
        </mxCell>
        <mxCell id="kqz_AR--rFRj53nuLRnA-19" value="&lt;ul&gt;&lt;li&gt;alu&lt;/li&gt;&lt;li&gt;jump ctrl&lt;/li&gt;&lt;li&gt;auipc&lt;/li&gt;&lt;li&gt;lui&lt;/li&gt;&lt;li&gt;bus3 sel&lt;/li&gt;&lt;/ul&gt;" style="text;strokeColor=none;fillColor=none;html=1;whiteSpace=wrap;verticalAlign=middle;overflow=hidden;" vertex="1" parent="kqz_AR--rFRj53nuLRnA-1">
          <mxGeometry x="240" y="140" width="90" height="110" as="geometry" />
        </mxCell>
        <mxCell id="kqz_AR--rFRj53nuLRnA-20" value="&lt;ul&gt;&lt;li&gt;bus3 to rd&lt;/li&gt;&lt;li&gt;bus3 to mem&lt;/li&gt;&lt;li&gt;pc update&lt;/li&gt;&lt;/ul&gt;" style="text;strokeColor=none;fillColor=none;html=1;whiteSpace=wrap;verticalAlign=middle;overflow=hidden;" vertex="1" parent="kqz_AR--rFRj53nuLRnA-1">
          <mxGeometry x="320" y="140" width="130" height="110" as="geometry" />
        </mxCell>
      </root>
    </mxGraphModel>
  </diagram>
  <diagram id="lpnaXNYQdgH-ghkbZLfU" name="第 3 页">
    <mxGraphModel dx="1331" dy="756" grid="1" gridSize="10" guides="1" tooltips="1" connect="1" arrows="1" fold="1" page="1" pageScale="1" pageWidth="827" pageHeight="1169" math="0" shadow="0">
      <root>
        <mxCell id="0" />
        <mxCell id="1" parent="0" />
        <mxCell id="pL0a3mDwRMK3D2uByhX--1" value="" style="group" vertex="1" connectable="0" parent="1">
          <mxGeometry x="30" y="320" width="900" height="260" as="geometry" />
        </mxCell>
        <mxCell id="pL0a3mDwRMK3D2uByhX--2" value="pc fetch" style="rounded=0;whiteSpace=wrap;html=1;" vertex="1" parent="pL0a3mDwRMK3D2uByhX--1">
          <mxGeometry x="90" y="70" width="120" height="60" as="geometry" />
        </mxCell>
        <mxCell id="pL0a3mDwRMK3D2uByhX--3" value="inst split" style="rounded=0;whiteSpace=wrap;html=1;" vertex="1" parent="pL0a3mDwRMK3D2uByhX--1">
          <mxGeometry x="250" y="70" width="120" height="60" as="geometry" />
        </mxCell>
        <mxCell id="pL0a3mDwRMK3D2uByhX--4" style="edgeStyle=orthogonalEdgeStyle;rounded=0;orthogonalLoop=1;jettySize=auto;html=1;exitX=1;exitY=0.5;exitDx=0;exitDy=0;entryX=0;entryY=0.5;entryDx=0;entryDy=0;" edge="1" parent="pL0a3mDwRMK3D2uByhX--1" source="pL0a3mDwRMK3D2uByhX--2" target="pL0a3mDwRMK3D2uByhX--3">
          <mxGeometry relative="1" as="geometry" />
        </mxCell>
        <mxCell id="pL0a3mDwRMK3D2uByhX--5" value="inst control" style="rounded=0;whiteSpace=wrap;html=1;" vertex="1" parent="pL0a3mDwRMK3D2uByhX--1">
          <mxGeometry x="410" y="70" width="120" height="60" as="geometry" />
        </mxCell>
        <mxCell id="pL0a3mDwRMK3D2uByhX--6" style="edgeStyle=orthogonalEdgeStyle;rounded=0;orthogonalLoop=1;jettySize=auto;html=1;exitX=1;exitY=0.5;exitDx=0;exitDy=0;entryX=0;entryY=0.5;entryDx=0;entryDy=0;" edge="1" parent="pL0a3mDwRMK3D2uByhX--1" source="pL0a3mDwRMK3D2uByhX--3" target="pL0a3mDwRMK3D2uByhX--5">
          <mxGeometry relative="1" as="geometry" />
        </mxCell>
        <mxCell id="pL0a3mDwRMK3D2uByhX--7" value="inst control" style="swimlane;whiteSpace=wrap;html=1;" vertex="1" parent="pL0a3mDwRMK3D2uByhX--1">
          <mxGeometry x="570" width="200" height="200" as="geometry" />
        </mxCell>
        <mxCell id="pL0a3mDwRMK3D2uByhX--8" style="edgeStyle=orthogonalEdgeStyle;rounded=0;orthogonalLoop=1;jettySize=auto;html=1;exitX=0.5;exitY=1;exitDx=0;exitDy=0;" edge="1" parent="pL0a3mDwRMK3D2uByhX--7" source="pL0a3mDwRMK3D2uByhX--9" target="pL0a3mDwRMK3D2uByhX--10">
          <mxGeometry relative="1" as="geometry" />
        </mxCell>
        <mxCell id="pL0a3mDwRMK3D2uByhX--9" value="sign ctrl" style="rounded=0;whiteSpace=wrap;html=1;" vertex="1" parent="pL0a3mDwRMK3D2uByhX--7">
          <mxGeometry x="80" y="40" width="80" height="60" as="geometry" />
        </mxCell>
        <mxCell id="pL0a3mDwRMK3D2uByhX--10" value="imm selete" style="rounded=0;whiteSpace=wrap;html=1;" vertex="1" parent="pL0a3mDwRMK3D2uByhX--7">
          <mxGeometry x="80" y="120" width="80" height="60" as="geometry" />
        </mxCell>
        <mxCell id="pL0a3mDwRMK3D2uByhX--11" value="&lt;ul&gt;&lt;li&gt;opcode&lt;/li&gt;&lt;/ul&gt;" style="text;strokeColor=none;fillColor=none;html=1;whiteSpace=wrap;verticalAlign=middle;overflow=hidden;" vertex="1" parent="pL0a3mDwRMK3D2uByhX--7">
          <mxGeometry x="-10" y="30" width="100" height="80" as="geometry" />
        </mxCell>
        <mxCell id="pL0a3mDwRMK3D2uByhX--12" value="&lt;ul&gt;&lt;li&gt;Iimm&lt;/li&gt;&lt;li&gt;Simm&lt;/li&gt;&lt;li&gt;Bimm&lt;/li&gt;&lt;li&gt;Uimm&lt;/li&gt;&lt;li&gt;Jimm&lt;/li&gt;&lt;/ul&gt;" style="text;strokeColor=none;fillColor=none;html=1;whiteSpace=wrap;verticalAlign=middle;overflow=hidden;" vertex="1" parent="pL0a3mDwRMK3D2uByhX--7">
          <mxGeometry x="-10" y="100" width="100" height="90" as="geometry" />
        </mxCell>
        <mxCell id="pL0a3mDwRMK3D2uByhX--13" value="" style="shape=curlyBracket;whiteSpace=wrap;html=1;rounded=1;labelPosition=left;verticalLabelPosition=middle;align=right;verticalAlign=middle;" vertex="1" parent="pL0a3mDwRMK3D2uByhX--1">
          <mxGeometry x="530" width="40" height="200" as="geometry" />
        </mxCell>
        <mxCell id="pL0a3mDwRMK3D2uByhX--14" value="&lt;ul&gt;&lt;li&gt;R_alu64&lt;/li&gt;&lt;li&gt;R_alu32&lt;/li&gt;&lt;li&gt;...&lt;/li&gt;&lt;/ul&gt;" style="text;strokeColor=none;fillColor=none;html=1;whiteSpace=wrap;verticalAlign=middle;overflow=hidden;" vertex="1" parent="pL0a3mDwRMK3D2uByhX--1">
          <mxGeometry x="800" y="30" width="100" height="80" as="geometry" />
        </mxCell>
        <mxCell id="pL0a3mDwRMK3D2uByhX--15" style="edgeStyle=orthogonalEdgeStyle;rounded=0;orthogonalLoop=1;jettySize=auto;html=1;exitX=1;exitY=0.5;exitDx=0;exitDy=0;entryX=0;entryY=0.5;entryDx=0;entryDy=0;" edge="1" parent="pL0a3mDwRMK3D2uByhX--1" source="pL0a3mDwRMK3D2uByhX--9" target="pL0a3mDwRMK3D2uByhX--14">
          <mxGeometry relative="1" as="geometry" />
        </mxCell>
        <mxCell id="pL0a3mDwRMK3D2uByhX--16" value="&lt;ul&gt;&lt;li&gt;imm&lt;/li&gt;&lt;/ul&gt;" style="text;strokeColor=none;fillColor=none;html=1;whiteSpace=wrap;verticalAlign=middle;overflow=hidden;" vertex="1" parent="pL0a3mDwRMK3D2uByhX--1">
          <mxGeometry x="800" y="110" width="100" height="80" as="geometry" />
        </mxCell>
        <mxCell id="pL0a3mDwRMK3D2uByhX--17" style="edgeStyle=orthogonalEdgeStyle;rounded=0;orthogonalLoop=1;jettySize=auto;html=1;exitX=1;exitY=0.5;exitDx=0;exitDy=0;" edge="1" parent="pL0a3mDwRMK3D2uByhX--1" source="pL0a3mDwRMK3D2uByhX--10" target="pL0a3mDwRMK3D2uByhX--16">
          <mxGeometry relative="1" as="geometry" />
        </mxCell>
        <mxCell id="pL0a3mDwRMK3D2uByhX--18" value="" style="endArrow=classic;html=1;rounded=0;entryX=0;entryY=0.5;entryDx=0;entryDy=0;" edge="1" parent="pL0a3mDwRMK3D2uByhX--1" target="pL0a3mDwRMK3D2uByhX--2">
          <mxGeometry relative="1" as="geometry">
            <mxPoint y="80" as="sourcePoint" />
            <mxPoint x="110" y="20" as="targetPoint" />
            <Array as="points">
              <mxPoint y="100" />
            </Array>
          </mxGeometry>
        </mxCell>
        <mxCell id="pL0a3mDwRMK3D2uByhX--19" value="inst_addr" style="edgeLabel;resizable=0;html=1;align=center;verticalAlign=middle;" connectable="0" vertex="1" parent="pL0a3mDwRMK3D2uByhX--18">
          <mxGeometry relative="1" as="geometry" />
        </mxCell>
        <mxCell id="pL0a3mDwRMK3D2uByhX--20" value="JUMP module" style="edgeLabel;resizable=0;html=1;align=left;verticalAlign=bottom;" connectable="0" vertex="1" parent="pL0a3mDwRMK3D2uByhX--18">
          <mxGeometry x="-1" relative="1" as="geometry" />
        </mxCell>
        <mxCell id="pL0a3mDwRMK3D2uByhX--21" value="" style="endArrow=classic;html=1;rounded=0;entryX=0.5;entryY=1;entryDx=0;entryDy=0;" edge="1" parent="pL0a3mDwRMK3D2uByhX--1" target="pL0a3mDwRMK3D2uByhX--2">
          <mxGeometry relative="1" as="geometry">
            <mxPoint y="160" as="sourcePoint" />
            <mxPoint x="40" y="129" as="targetPoint" />
            <Array as="points">
              <mxPoint x="150" y="160" />
            </Array>
          </mxGeometry>
        </mxCell>
        <mxCell id="pL0a3mDwRMK3D2uByhX--22" value="jump_en" style="edgeLabel;resizable=0;html=1;align=center;verticalAlign=middle;" connectable="0" vertex="1" parent="pL0a3mDwRMK3D2uByhX--21">
          <mxGeometry relative="1" as="geometry" />
        </mxCell>
        <mxCell id="pL0a3mDwRMK3D2uByhX--23" value="&lt;ul&gt;&lt;li&gt;opcode&lt;/li&gt;&lt;li&gt;funct7&lt;/li&gt;&lt;li&gt;funct3&lt;/li&gt;&lt;li&gt;rs1addr&lt;/li&gt;&lt;li&gt;rs2addr&lt;/li&gt;&lt;li&gt;...&lt;/li&gt;&lt;/ul&gt;" style="text;strokeColor=none;fillColor=none;html=1;whiteSpace=wrap;verticalAlign=middle;overflow=hidden;" vertex="1" parent="pL0a3mDwRMK3D2uByhX--1">
          <mxGeometry x="420" y="140" width="100" height="120" as="geometry" />
        </mxCell>
        <mxCell id="pL0a3mDwRMK3D2uByhX--24" style="edgeStyle=orthogonalEdgeStyle;rounded=0;orthogonalLoop=1;jettySize=auto;html=1;exitX=0.5;exitY=1;exitDx=0;exitDy=0;entryX=0;entryY=0.5;entryDx=0;entryDy=0;" edge="1" parent="pL0a3mDwRMK3D2uByhX--1" source="pL0a3mDwRMK3D2uByhX--3" target="pL0a3mDwRMK3D2uByhX--23">
          <mxGeometry relative="1" as="geometry" />
        </mxCell>
      </root>
    </mxGraphModel>
  </diagram>
</mxfile>
